<svg width="80" height="80" viewBox="0 0 80 80" fill="none" xmlns="http://www.w3.org/2000/svg">
<path d="M33.7378 27.95C34.2865 28.4404 34.725 29.0416 35.0245 29.7138C35.324 30.386 35.4776 31.1141 35.4753 31.85C37.1061 31.8481 49.3003 31.85 49.3003 31.85C49.3078 31.0963 49.4742 30.3527 49.7887 29.6678C50.1031 28.9828 50.5586 28.3719 51.1253 27.875C52.6872 26.4845 53.892 24.739 54.6382 22.7855C55.3843 20.8319 55.65 18.7277 55.4128 16.65C54.364 6.17667 41.3872 1.26315 33.6377 8.33768C32.2683 9.58118 31.1759 11.0989 30.4314 12.7922C29.687 14.4855 29.3071 16.3165 29.3166 18.1661C29.326 20.0158 29.7245 21.8429 30.4862 23.5285C31.248 25.2141 32.3558 26.7205 33.7378 27.95ZM42.3878 26.425C42.0593 26.4203 41.7459 26.2866 41.5153 26.0527C41.2846 25.8188 41.1554 25.5035 41.1554 25.175C41.1554 24.8465 41.2847 24.5312 41.5153 24.2973C41.746 24.0634 42.0594 23.9296 42.3878 23.925C42.7163 23.9296 43.0297 24.0634 43.2604 24.2973C43.491 24.5312 43.6203 24.8465 43.6203 25.175C43.6202 25.5035 43.4909 25.8188 43.2603 26.0527C43.0297 26.2866 42.7162 26.4204 42.3878 26.425ZM44.8378 18.1375C44.3629 18.4532 43.9944 18.9049 43.7803 19.4334C43.5662 19.962 43.5166 20.5428 43.6378 21.1C43.6327 21.4281 43.4987 21.741 43.2648 21.9712C43.031 22.2014 42.716 22.3304 42.3878 22.3304C42.0597 22.3304 41.7447 22.2014 41.5108 21.9712C41.277 21.741 41.143 21.4281 41.1378 21.1C41.0046 20.1167 41.1564 19.1158 41.5752 18.2162C41.9939 17.3166 42.6621 16.5561 43.5004 16.025C43.8099 15.8311 44.0635 15.5597 44.2361 15.2377C44.4086 14.9157 44.4941 14.5542 44.4841 14.189C44.474 13.8238 44.3689 13.4676 44.179 13.1556C43.989 12.8435 43.7209 12.5864 43.4012 12.4097C43.0814 12.2331 42.7211 12.1429 42.3558 12.1482C41.9906 12.1536 41.633 12.2541 41.3185 12.44C41.004 12.6259 40.7435 12.8906 40.5627 13.2081C40.382 13.5255 40.2872 13.8847 40.2878 14.25C40.2817 14.5775 40.1474 14.8896 39.9136 15.1191C39.6798 15.3485 39.3653 15.4771 39.0377 15.4771C38.7101 15.477 38.3956 15.3485 38.1619 15.1189C37.9281 14.8894 37.7938 14.5774 37.7878 14.2498C37.7887 13.4515 37.9977 12.6673 38.3941 11.9744C38.7904 11.2814 39.3605 10.7037 40.0481 10.2982C40.7357 9.89275 41.5171 9.67342 42.3153 9.6619C43.1135 9.65037 43.901 9.84704 44.6 10.2325C45.299 10.618 45.8856 11.179 46.3018 11.8602C46.718 12.5414 46.9495 13.3193 46.9735 14.1172C46.9975 14.9151 46.8131 15.7055 46.4386 16.4105C46.0641 17.1155 45.5124 17.7107 44.8378 18.1375Z" fill="#263B3C"/>
<path d="M49.3002 34.8V34.35C49.3002 34.35 37.1531 34.35 35.4752 34.35C35.4201 34.8904 35.4784 35.4364 35.6463 35.9531C35.8142 36.4697 36.0882 36.9456 36.4505 37.3503C36.8129 37.7551 37.2558 38.0797 37.7508 38.3035C38.2458 38.5273 38.7821 38.6453 39.3253 38.65H45.4502C46.4712 38.6495 47.4502 38.2438 48.1721 37.5218C48.894 36.7999 49.2998 35.8209 49.3002 34.8Z" fill="#263B3C"/>
<path d="M37.8877 40.9874C38.1751 41.6826 38.6623 42.2769 39.2875 42.6952C39.9127 43.1135 40.6479 43.337 41.4002 43.3374H43.3752C44.1258 43.3368 44.8594 43.1131 45.4826 42.6947C46.1057 42.2762 46.5905 41.682 46.8752 40.9874C46.4252 41.0999 38.3502 41.0874 37.8877 40.9874Z" fill="#263B3C"/>
<path d="M60.9126 23.3999C60.1071 22.0577 59.0946 20.8512 57.9126 19.825C57.4889 23.6464 55.6681 27.1766 52.8001 29.7374C52.4937 29.999 52.2462 30.3225 52.0738 30.6866C51.9015 31.0507 51.8082 31.4472 51.8001 31.8499V34.7999C51.8011 35.6962 51.611 36.5823 51.2424 37.3993C50.8738 38.2162 50.3352 38.9451 49.6626 39.5374C49.6618 41.2059 48.9995 42.806 47.8209 43.9869C46.6423 45.1679 45.0436 45.8333 43.3751 45.8374H41.4001C40.5719 45.8367 39.752 45.6728 38.9872 45.3551C38.2224 45.0375 37.5277 44.5723 36.9426 43.9861C36.3576 43.3999 35.8938 42.7042 35.5777 41.9388C35.2615 41.1733 35.0992 40.3531 35.1001 39.5249C34.4327 38.9318 33.8983 38.2042 33.532 37.3898C33.1658 36.5755 32.976 35.6929 32.9751 34.7999V31.8374C32.9782 31.4601 32.9007 31.0864 32.7476 30.7415C32.5945 30.3966 32.3695 30.0883 32.0876 29.8374C29.8325 27.8521 28.1929 25.2625 27.3626 22.3749C27.0989 21.418 26.9231 20.4389 26.8376 19.45C25.2409 20.7823 23.8765 22.3706 22.8001 24.1499C21.142 27.0041 20.1108 30.1787 19.7751 33.4624V37.4249C19.7775 38.5426 19.4656 39.6385 18.8751 40.5874L14.9751 46.7624C14.7629 47.1088 14.631 47.4983 14.5892 47.9024C14.5473 48.3064 14.5966 48.7147 14.7332 49.0973C14.8699 49.4798 15.0906 49.8268 15.3791 50.1128C15.6676 50.3988 16.0165 50.6165 16.4001 50.7499L18.95 51.6374C18.5555 52.6985 18.0388 54.0319 19.1002 54.9124L19.6751 55.4249L19.2751 56.6749C19.1963 56.9596 19.1783 57.2577 19.2223 57.5497C19.2664 57.8418 19.3714 58.1213 19.5306 58.3701C19.6898 58.6189 19.8996 58.8314 20.1463 58.9937C20.393 59.1561 20.6712 59.2647 20.9627 59.3124C20.758 61.2433 20.0224 64.0743 21.6127 65.6499C21.9996 66.0984 22.4742 66.4629 23.0074 66.7209C23.5405 66.9789 24.1209 67.1249 24.7126 67.1499L31.8001 67.4124L33.9376 72.2999C34.4391 73.4004 35.3541 74.2589 36.4842 74.6894C37.6143 75.12 38.8685 75.0878 39.9751 74.5999C44.0751 72.7249 51.7126 68.675 56.7126 62.5499C57.2524 61.867 57.5948 61.0492 57.7028 60.1854C57.8107 59.3216 57.6801 58.4447 57.325 57.6499C57.1748 57.1711 57.1511 56.6616 57.2563 56.1709C57.3614 55.6802 57.5918 55.2251 57.9251 54.8499C62.1376 50.2374 70.8376 37.9124 60.9126 23.3999Z" fill="#263B3C"/>
</svg>
