<svg width="80" height="80" viewBox="0 0 80 80" fill="none" xmlns="http://www.w3.org/2000/svg">
<g clip-path="url(#clip0_207_298)">
<path d="M1.26478 35.954C2.13268 37.3718 3.39426 38.5071 4.89631 39.2212C5.60858 39.5599 5.91131 40.4126 5.57196 41.1255C5.23261 41.8377 4.37996 42.1405 3.66769 41.8011C3.09641 41.5246 2.54955 41.2011 2.03198 40.8337C3.59873 45.4784 7.95108 48.6089 12.8533 48.6168H12.9388C12.8564 47.8282 12.8381 47.0348 12.8833 46.2438C13.5162 38.6261 19.937 32.7973 27.5803 32.9023H35.71C36.4992 32.9023 37.1382 32.2627 37.1382 31.4741C37.1382 29.1072 39.0572 27.1883 41.4241 27.1883H45.7099C46.4991 27.1883 47.1381 27.8279 47.1381 28.6171C47.1381 29.4057 46.4991 30.0453 45.7099 30.0453H41.4241C40.6349 30.0453 39.9959 30.6849 39.9959 31.4741C39.9959 33.841 38.077 35.7593 35.71 35.7593H27.5803C21.4433 35.6513 16.2694 40.3106 15.736 46.4251C15.6664 47.5066 15.75 48.5924 15.9844 49.6507C16.046 49.9364 16.1187 50.2049 16.2005 50.4753C16.2157 50.5278 16.2316 50.5821 16.2487 50.6352C16.3372 50.9208 16.4361 51.1924 16.5459 51.4622L16.5801 51.5434C17.9497 54.8203 20.753 57.283 24.1789 58.2193L24.2832 58.2462C24.5444 58.3151 24.8099 58.3719 25.0785 58.4219C25.2128 58.4464 25.3501 58.4647 25.4856 58.4848C25.6803 58.5135 25.8732 58.5434 26.0703 58.5623C26.4231 58.5947 26.7844 58.6166 27.1384 58.6166C30.7535 58.6069 34.1512 56.89 36.3045 53.9866C35.6277 53.5545 34.9782 53.0821 34.3587 52.5724C33.7521 52.0677 33.6691 51.1668 34.1738 50.5601C34.678 49.9534 35.5788 49.8704 36.1855 50.3752C40.1326 53.6588 45.3455 54.9967 50.3863 54.0195C55.4272 53.0418 59.7618 49.8521 62.1952 45.3307C61.4286 44.2889 60.8446 43.1243 60.468 41.8866C60.2501 41.1328 60.681 40.3436 61.4335 40.1202C62.1855 39.8962 62.9777 40.3216 63.2066 41.0724C64.3137 44.8278 67.825 47.3558 71.7379 47.2142C75.6508 47.0726 78.9705 44.2974 79.803 40.4718C80.6361 36.6462 78.7709 32.7424 75.2706 30.9871C75.0887 31.8177 74.8446 32.6338 74.5406 33.4284C74.2538 34.1633 73.4249 34.527 72.6895 34.2396C71.954 33.9527 71.5908 33.1233 71.8777 32.3884C72.3263 31.2336 72.6211 30.0252 72.7535 28.7941C72.7767 28.597 72.7908 28.4126 72.8048 28.2228C72.8292 27.878 72.8524 27.5356 72.8524 27.1883C72.8524 20.9945 68.8529 15.51 62.9551 13.6173C63.4043 14.2966 63.8035 15.0083 64.1496 15.7456C64.3876 16.2125 64.3504 16.7728 64.0531 17.2043C63.7559 17.6358 63.2456 17.8702 62.7244 17.8147C62.2032 17.7585 61.7546 17.4216 61.555 16.937C58.4337 10.2458 50.7409 7.01892 43.78 9.48165C42.7265 9.8442 41.7201 10.3294 40.7802 10.9269C40.1185 11.3578 39.2336 11.1711 38.8027 10.5101C38.3717 9.84908 38.5585 8.96347 39.2201 8.53257C39.4356 8.38975 39.6614 8.26707 39.883 8.13585C36.8575 6.6991 33.3077 6.90723 30.4715 8.68882C31.1337 9.27414 31.7257 9.93453 32.236 10.6572C32.5405 11.0753 32.5949 11.6252 32.3788 12.0951C32.1627 12.5651 31.7093 12.8819 31.1935 12.9222C30.6778 12.963 30.1803 12.7213 29.8929 12.2911C29.2191 11.331 28.356 10.518 27.3575 9.90279H27.3441C23.6253 7.5902 18.7578 8.48252 16.1016 11.9645C16.6668 12.1257 17.2185 12.3313 17.752 12.5798C18.225 12.7915 18.5466 13.2426 18.5924 13.7589C18.6376 14.2753 18.4001 14.7758 17.9711 15.0669C17.542 15.3574 16.989 15.3934 16.5258 15.1597C14.2126 14.0665 11.532 14.0635 9.21632 15.1523C6.90129 16.2406 5.19294 18.3066 4.55879 20.7858C5.32722 20.4934 6.12432 20.2853 6.9373 20.1657C7.71915 20.054 8.44301 20.5978 8.55409 21.3791C8.66518 22.1603 8.12197 22.8842 7.34012 22.9952C6.03399 23.1832 4.7895 23.6721 3.70493 24.4241L3.686 24.4399C-0.0352514 27.0107 -1.1064 32.0381 1.24464 35.9021C1.25318 35.9223 1.25623 35.9394 1.26478 35.954Z" fill="#263B3C"/>
<path d="M60.7094 62.9019C68.1922 62.9019 74.2804 58.0966 74.2804 52.1879C74.2779 51.3652 74.1553 50.5467 73.916 49.7594C70.5182 50.5333 66.9532 49.7002 64.2506 47.4993C60.9084 53.0082 55.1309 56.5842 48.7095 57.1176C50.7798 60.0156 53.9126 61.9766 57.4239 62.5723C58.5042 62.7957 59.6059 62.9061 60.7094 62.9019Z" fill="#263B3C"/>
<path d="M45.4242 57.0963C43.4162 56.9199 41.446 56.4426 39.5796 55.6791C39.5277 55.673 39.4764 55.6626 39.4257 55.6492C39.2829 55.5881 39.1401 55.5149 38.9973 55.452C38.9399 55.4264 38.8783 55.4093 38.8215 55.3818C38.3253 56.0807 37.7668 56.7331 37.1528 57.3307C37.2297 59.6359 39.1175 61.4669 41.424 61.4737C42.7008 61.4462 43.9264 61.9772 44.7797 62.9275L53.0425 72.3921C53.3367 72.7125 53.7505 72.8974 54.185 72.9017C55.0243 72.9042 55.7066 72.2267 55.7097 71.3874V65.082C51.2761 64.0566 47.5158 61.1374 45.4242 57.0963Z" fill="#263B3C"/>
</g>
<defs>
<clipPath id="clip0_207_298">
<rect width="80" height="80" fill="white"/>
</clipPath>
</defs>
</svg>
