<svg width="60" height="56" viewBox="0 0 60 56" fill="none" xmlns="http://www.w3.org/2000/svg">
<path d="M28.7521 1.83072C26.3807 2.2083 24.3634 3.69575 23.2844 5.84111C22.2055 7.9922 22.1887 10.5151 23.2339 12.6376C24.4645 15.1377 26.9034 16.7338 29.6232 16.8139C30.9044 16.854 32.0058 16.608 33.1353 16.0416C35.3156 14.9432 36.7767 12.9179 37.1813 10.4408C37.2993 9.73709 37.2712 8.42699 37.1251 7.76336C36.7992 6.25874 36.1698 5.08595 35.1021 3.99324C34.4109 3.28384 33.8658 2.88337 33.0285 2.47719C31.7248 1.84788 30.1401 1.6076 28.7521 1.83072Z" fill="#263B3C"/>
<path d="M12.4562 15.1606C11.529 15.2865 10.5175 15.5782 9.84315 15.9272C9.22502 16.2419 8.46077 16.814 7.93255 17.3575C5.41505 19.9147 5.03854 23.845 7.01096 26.8886C7.43804 27.5408 8.37648 28.5019 9.00586 28.931C11.3211 30.4928 14.2488 30.6472 16.6427 29.3314C17.3619 28.9367 17.7946 28.6049 18.4128 27.9698C19.8345 26.5167 20.5482 24.7489 20.5425 22.6779C20.5425 21.6539 20.4526 21.099 20.1492 20.2065C19.9019 19.4799 19.7221 19.1252 19.2725 18.4387C18.2217 16.8368 16.4347 15.6412 14.5522 15.2693C14.1083 15.1835 12.8158 15.1148 12.4562 15.1606Z" fill="#263B3C"/>
<path d="M45.6655 15.1893C43.1761 15.5268 41.0126 17.1001 39.928 19.3599C39.3773 20.504 39.2031 21.3164 39.2031 22.7352C39.2087 23.6849 39.22 23.8565 39.3548 24.4C39.7314 25.9161 40.372 27.0488 41.4621 28.1186C42.7827 29.4173 44.418 30.1267 46.2836 30.2125C49.2169 30.3498 51.9929 28.6393 53.2517 25.9275C53.7574 24.8348 53.971 23.868 53.971 22.678C53.971 19.1367 51.5883 16.1103 48.1773 15.3266C47.4862 15.1664 46.3005 15.0977 45.6655 15.1893Z" fill="#263B3C"/>
<path d="M24.0877 16.3792C23.0538 16.9513 22.1827 17.592 21.3511 18.3872L20.8678 18.8449L21.0589 19.2854C21.7332 20.8816 21.8962 22.8782 21.5028 24.686C21.2331 25.916 20.5531 27.2948 19.699 28.3188L19.3955 28.685L19.6596 28.8223C19.8113 28.8966 20.2384 29.1655 20.6205 29.423L21.3061 29.8864V29.3486C21.3061 28.6563 21.4803 27.6209 21.7219 26.8828C23.0987 22.7008 27.2402 20.2294 31.5166 21.0475C33.0732 21.345 34.5904 22.1573 35.7874 23.3244C36.7202 24.2398 37.3664 25.2066 37.816 26.3508C38.1925 27.3176 38.4454 28.6049 38.4454 29.566V29.8749L39.0523 29.4687C39.3838 29.2399 39.7996 28.9767 39.9738 28.8852C40.1537 28.7879 40.2998 28.6964 40.2998 28.6792C40.2998 28.6563 40.1537 28.4676 39.9795 28.2502C37.9227 25.7501 37.4282 22.1802 38.7207 19.171C38.8612 18.8392 38.8612 18.8392 38.3049 18.3186C37.4226 17.4947 36.5628 16.8654 35.6581 16.3849L35.2029 16.1446L34.7028 16.4879C33.7925 17.1229 32.6349 17.6206 31.5616 17.8494C30.8423 18.0039 28.853 18.0039 28.1618 17.8494C27.0323 17.5977 26.0264 17.1686 25.1048 16.5393C24.7958 16.3277 24.5317 16.156 24.5148 16.156C24.4979 16.156 24.3069 16.259 24.0877 16.3792Z" fill="#263B3C"/>
<path d="M29.2573 22.0829C28.2795 22.1916 27.3411 22.4605 26.56 22.861C25.1776 23.5704 23.9188 24.8519 23.2276 26.2535C22.3847 27.9698 22.233 30.1037 22.823 31.9459C23.5423 34.1885 25.2843 35.9906 27.4591 36.74C28.3525 37.049 28.819 37.1234 29.8754 37.1234C30.5722 37.1234 30.9543 37.0947 31.2915 37.0204C34.1687 36.3911 36.3265 34.3029 37.0514 31.431C37.2762 30.55 37.3268 29.3428 37.1807 28.4504C36.7311 25.6929 34.8823 23.4216 32.3592 22.512C31.4432 22.1859 30.0721 21.9971 29.2573 22.0829Z" fill="#263B3C"/>
<path d="M7.33072 29.7948C3.77362 31.7399 1.35165 35.3556 0.885238 39.4289C0.789708 40.2356 0.76723 42.4668 0.851522 42.8386C1.0482 43.7483 1.55957 44.2345 2.95319 44.8581C4.82445 45.6934 7.23519 46.2369 10.2079 46.4829C11.5678 46.5973 16.1701 46.5687 16.3668 46.4485C16.3892 46.4314 16.4229 46.2826 16.4454 46.1167C16.8837 42.707 18.5302 39.5891 21.0477 37.398C21.649 36.8774 22.5256 36.2366 23.0763 35.922C23.6776 35.5787 23.6608 35.676 23.2112 35.1039C22.447 34.137 21.9075 33.0901 21.6153 31.9802C21.5141 31.5969 21.5141 31.5969 20.9466 31.1335C20.2835 30.59 19.6485 30.1552 18.9742 29.7891L18.4909 29.5317L18.1706 29.7662C17.1422 30.5214 15.8666 31.0649 14.5854 31.288C13.8212 31.4253 12.4669 31.4253 11.7251 31.2937C10.4495 31.0649 9.05026 30.4585 8.1062 29.7319C7.97133 29.6289 7.84209 29.5431 7.82523 29.5431C7.80837 29.5431 7.58359 29.6575 7.33072 29.7948Z" fill="#263B3C"/>
<path d="M40.7214 29.8178C39.9628 30.2297 39.1929 30.7674 38.5523 31.3224C38.2489 31.5913 38.232 31.6199 38.0297 32.2549C37.6926 33.3247 37.1531 34.3316 36.4451 35.2069C36.2765 35.4071 36.1416 35.5902 36.1416 35.6074C36.1416 35.6245 36.2989 35.7218 36.4956 35.8305C37.479 36.374 38.5074 37.1692 39.3784 38.0559C41.4463 40.1498 42.7557 42.7586 43.2277 45.7049C43.2895 46.1111 43.3513 46.4543 43.3569 46.46C43.4525 46.563 48.2234 46.5973 49.263 46.5058C52.8931 46.1797 55.2476 45.6305 57.2201 44.6408C58.3327 44.0744 58.7429 43.6167 58.9059 42.73C58.9902 42.2666 58.934 40.0068 58.816 39.1544C58.5631 37.3523 57.9113 35.5673 56.9503 34.0627C55.7815 32.2377 53.9945 30.5958 52.1738 29.6805L51.8816 29.5317L51.6681 29.6976C51.0612 30.1839 50.1508 30.6645 49.3304 30.9448C46.7061 31.8315 43.9357 31.4311 41.6936 29.8521C41.452 29.6805 41.2497 29.5432 41.244 29.5432C41.2328 29.5432 41.0024 29.669 40.7214 29.8178Z" fill="#263B3C"/>
<path d="M24.0311 36.7458C21.9519 37.8614 20.1312 39.7035 18.9904 41.8432C18.3217 43.0904 17.8385 44.5835 17.6249 46.0767C17.5069 46.8662 17.4507 49.1946 17.535 49.6466C17.698 50.5219 18.1194 51.0196 19.1253 51.5288C21.7608 52.856 25.5427 53.5426 30.0438 53.5082C34.0224 53.4739 36.8377 53.0391 39.4451 52.0494C40.8837 51.5059 41.7098 50.9224 42.0188 50.2358L42.1818 49.8811L42.1987 48.4509C42.2099 47.6214 42.193 46.7804 42.1537 46.4486C41.7379 42.7357 39.7598 39.4347 36.7029 37.3522C36.4107 37.152 35.9499 36.8717 35.6857 36.7286L35.2025 36.4655L34.6518 36.8431C33.9212 37.3408 33.3312 37.6383 32.5445 37.8957C31.4094 38.2733 30.263 38.4106 29.1166 38.3019C27.6219 38.1532 26.2507 37.6612 25.0819 36.8488C24.8459 36.6829 24.6267 36.5341 24.593 36.5113C24.5593 36.4884 24.3064 36.5971 24.0311 36.7458Z" fill="#263B3C"/>
</svg>
