<svg width="81" height="80" viewBox="0 0 81 80" fill="none" xmlns="http://www.w3.org/2000/svg">
<path d="M14.471 14.6125C14.2547 14.9487 14.0885 15.3063 13.9585 15.7312C14.1397 15.4225 14.296 15.155 14.4522 14.8888C14.466 14.895 14.4785 14.9025 14.491 14.9088C14.4747 14.9813 14.4597 15.0537 14.4435 15.1262C14.4397 15.14 14.4372 15.1537 14.4335 15.1675C13.9897 17.1225 13.8772 19.1375 14.071 21.1325L14.4797 25.34C14.5197 25.7537 14.5447 26.1675 14.5735 26.5825C14.7097 28.63 15.5772 30.5637 17.201 32.4587C17.2472 32.5125 17.291 32.5887 17.311 32.6537C17.881 34.45 18.7185 35.9 19.8735 37.0863C21.6085 38.87 23.6685 39.8125 25.8347 39.8138H25.8385C27.9947 39.8138 30.046 38.8788 31.7722 37.1075C32.8785 35.9738 33.6972 34.5875 34.2785 32.87C34.3422 32.68 34.4647 32.4688 34.611 32.29C36.2922 30.2488 37.116 28.1712 37.1122 25.9637C37.1122 25.8113 37.1122 25.6575 37.1147 25.505L37.1472 17.8638C37.1097 17.61 37.0722 17.3537 37.0347 17.0925C37.0747 17.1962 37.1135 17.2963 37.1522 17.3938C37.2222 17.57 37.2885 17.7387 37.3485 17.9087C37.4422 18.1687 37.5222 18.4325 37.6072 18.6962C37.6135 18.6462 37.606 18.6013 37.5972 18.5563C37.426 17.7288 37.2235 16.9125 36.8585 16.145C36.8297 16.085 36.8022 16.0238 36.776 15.9637C36.7747 15.9625 36.7747 15.9613 36.7747 15.9613C36.7247 15.8488 36.6785 15.7362 36.6372 15.6213C36.516 15.2937 36.3972 14.9662 36.2772 14.6375C36.1872 14.3888 36.096 14.1388 36.006 13.89C35.9885 13.845 35.9722 13.8 35.956 13.755C35.9735 13.745 35.9922 13.735 36.011 13.725C36.3185 14.2112 36.6272 14.6962 36.9347 15.1825C36.8872 15.0187 36.8297 14.8575 36.7635 14.6987C36.4847 14.0212 36.1247 13.3988 35.5822 12.8925C35.4685 12.7875 35.3647 12.67 35.2797 12.5413C34.7322 11.725 34.0735 11.0337 33.1735 10.6125C33.1472 10.5987 33.121 10.5875 33.0947 10.5763C32.681 10.3925 32.2635 10.2187 31.8472 10.04C31.7422 9.99625 31.6385 9.95 31.5347 9.905C31.746 9.9225 31.9547 9.945 32.161 9.97625C33.3385 10.1512 34.451 10.5462 35.5297 11.0575C35.4872 11.0137 35.441 10.9825 35.3935 10.95C34.0972 10.075 32.6497 9.63625 31.1135 9.455C31.0535 9.44875 30.9947 9.44125 30.9347 9.43625C30.4185 9.38625 29.8985 9.36875 29.4047 9.17125C29.2122 9.09375 29.0047 9.0525 28.8022 9C28.5685 8.94 28.3347 8.8825 28.101 8.825C28.0447 8.81125 27.9885 8.7975 27.9322 8.78375C27.9347 8.755 27.9347 8.76375 27.9385 8.735H30.5985C30.576 8.685 30.551 8.66875 30.526 8.665C29.3685 8.4975 28.2085 8.37375 27.0385 8.47875C26.6372 8.515 26.2422 8.5325 25.8422 8.4775C25.6672 8.4525 25.4872 8.44625 25.3097 8.43125C25.3085 8.40125 25.3085 8.41 25.3072 8.38C26.176 8.2175 27.0435 8.05625 27.9622 7.885C27.041 7.9075 26.1722 7.9675 25.3147 8.12125C24.836 8.20625 24.3672 8.36 23.8847 8.4225C23.1972 8.5125 22.501 8.5475 21.8047 8.60625C23.181 7.95125 24.6535 7.6675 26.1535 7.5C25.871 7.5075 25.5897 7.495 25.3085 7.51C24.2697 7.56375 23.2385 7.68625 22.231 7.96125C21.396 8.19 20.6047 8.50875 19.9222 9.06125C19.7935 9.16625 19.636 9.23875 19.4935 9.325C19.4797 9.30375 19.4647 9.28125 19.4497 9.25875C19.7622 9.0325 20.0647 8.7875 20.3922 8.5825C20.726 8.37375 21.0772 8.19125 21.4335 8.02375C21.7772 7.86125 22.1372 7.7325 22.4897 7.58875C21.791 7.76625 21.1172 8.0125 20.4697 8.33C19.1847 8.96125 18.2172 10.0138 17.1072 10.8738C17.1047 10.8763 17.1035 10.8787 17.101 10.8812C17.0285 10.9975 16.951 11.11 16.8872 11.2325C16.7935 11.4113 16.7222 11.6037 16.616 11.7737C16.5685 11.8512 16.4635 11.905 16.3735 11.9425C16.191 12.0175 15.996 12.06 15.8172 12.14C14.8597 12.5687 14.296 13.3187 14.0572 14.3275C14.286 13.8687 14.5772 13.4575 15.001 13.085C14.886 13.48 14.791 13.8312 14.6797 14.1762C14.6285 14.3325 14.5572 14.4775 14.471 14.6125ZM16.791 25.4225L16.801 25.2975C16.8097 25.19 16.821 25.0413 16.8372 24.9463C17.3722 24.7675 17.6885 24.255 17.7072 23.5312C17.7197 23.0163 17.7235 22.4962 17.7285 21.9937C17.7335 21.4325 17.7385 20.86 17.7547 20.29C17.7547 19.3338 18.531 18.5637 19.481 18.5637C19.4985 18.5637 19.5147 18.5638 19.5322 18.565L20.3985 18.59C21.1122 18.5312 21.8322 18.5388 22.551 18.53C23.1935 18.5213 23.836 18.5275 24.4785 18.5275H26.3722C27.061 18.5275 27.751 18.53 28.4397 18.5262C28.9485 18.5238 29.4585 18.5162 29.9672 18.5138C30.4072 18.5112 30.8485 18.5125 31.2885 18.5112C31.7172 18.51 32.1397 18.5025 32.561 18.6312C33.0472 18.7787 33.411 19.0663 33.6197 19.515C33.7547 19.8025 33.8172 20.125 33.9097 20.4225C33.9147 20.4162 33.9197 20.41 33.9247 20.405C33.9385 20.895 33.9385 21.3937 33.9372 21.9075C33.936 22.355 33.9347 22.8163 33.9447 23.2763C33.9472 23.3988 33.9472 23.5225 33.946 23.655V23.9137C33.946 24.4288 34.3147 24.8712 34.821 24.9625C34.841 25.0575 34.8547 25.1912 34.861 25.245C35.0697 27.2162 34.4485 29.01 32.9022 30.8862C32.5835 31.2738 32.3347 31.715 32.1822 32.1625C31.7097 33.5588 31.0572 34.6712 30.1872 35.5638C28.8872 36.8975 27.3822 37.6025 25.8372 37.6025H25.8347C24.281 37.6013 22.7685 36.89 21.4597 35.5437C20.5522 34.61 19.8847 33.4463 19.421 31.9863C19.311 31.64 19.1197 31.2975 18.8822 31.02C17.2897 29.1625 16.626 27.3837 16.791 25.4225Z" fill="#263B3C"/>
<path d="M50.1494 68.1251C50.2231 69.1413 50.1456 69.2776 49.2069 69.6313C46.7544 70.5538 44.2019 71.0676 41.6219 71.4463C36.3831 72.2163 31.1056 72.4363 23.7581 72.5001C21.5831 72.3688 17.3519 72.1888 13.1344 71.8363C9.77938 71.5563 6.45438 70.9976 3.23688 69.9413C2.88313 69.8263 2.53438 69.6963 2.18813 69.5626C1.45688 69.2801 1.36188 69.1438 1.40313 68.3526L2.67188 55.9338C3.48563 49.2113 7.38438 45.4838 13.8769 44.1451C15.3519 43.8401 17.3344 41.6213 18.1794 39.8151C18.5381 40.1288 18.9069 40.4176 19.2856 40.6826L18.6294 40.1513C20.7481 41.8601 23.1919 42.7588 25.7831 42.7663C28.3744 42.7588 30.8181 41.8601 32.9369 40.1513L33.3869 39.8163C34.2319 41.6226 36.2144 43.8413 37.6894 44.1463C44.1806 45.4851 48.0806 49.2126 48.8944 55.9351L50.1494 68.1251Z" fill="#263B3C"/>
<path d="M79.5862 59.7475C79.4612 58.0162 79.0574 48.405 78.3712 46.815C77.4674 44.7225 76.2987 42.82 74.2637 41.6337C73.3512 41.1025 72.4012 40.62 71.4287 40.205C69.9574 39.5762 68.4724 38.98 66.9899 38.375C68.6562 38.3225 70.2749 37.9275 71.5074 37.4612C71.4024 37.4187 71.3262 37.3837 71.2474 37.355C69.8574 36.85 68.7137 36.0287 67.9599 34.7325C67.6137 34.1362 67.3737 33.515 67.2174 32.8762H67.8949C68.5249 32.9087 68.7999 32.64 69.0237 32.1012C70.1599 29.375 70.4524 26.5462 70.0899 23.6387C69.6612 20.1975 68.5862 17.025 66.4474 14.335C66.3874 14.245 66.3249 14.155 66.2599 14.0675C65.7674 13.395 65.2099 12.8237 64.5962 12.3387C63.5549 11.3537 62.3924 10.5225 60.9324 10.32C60.1824 10.2162 59.4224 10.15 58.6587 10.115C58.5949 10.105 58.5299 10.095 58.4662 10.0837C57.8162 10.0837 57.1662 10.0837 56.5162 10.0837C56.4962 10.0887 56.4749 10.0937 56.4549 10.1C56.0399 10.1125 55.6262 10.1325 55.2149 10.1612C53.3687 10.2925 51.8249 11.1275 50.4799 12.29C49.7824 12.815 49.1762 13.4237 48.6862 14.14C46.4249 16.8912 45.3074 20.155 44.8774 23.7037C44.5212 26.6425 44.8099 29.505 46.0362 32.2275C46.1537 32.4862 46.4849 32.8337 46.7112 32.8287H47.8324C47.2449 34.9637 45.9574 36.5387 43.7462 37.375C43.6837 37.3987 43.6237 37.4337 43.4624 37.5112C45.0299 37.9987 46.5612 38.3625 48.0399 38.3862C46.0162 39.2287 43.9849 40.0562 41.9762 40.9337C41.4862 41.1475 41.0374 41.4062 40.6074 41.685C47.2187 43.7687 51.1462 48.5187 51.9962 55.5575L52.8199 63.5587C53.9474 63.62 54.9287 63.67 55.6487 63.7137C62.3124 63.6562 67.0999 63.4562 71.8524 62.7575C74.1912 62.4137 76.5074 61.9487 78.7312 61.1112C79.5824 60.7925 79.6524 60.67 79.5862 59.7475ZM49.8862 38.2162C51.0149 37.975 52.1062 37.465 53.1524 36.575C53.9787 37.0412 54.7474 37.5075 55.5437 37.92C56.8212 38.5825 58.1262 38.5912 59.4137 37.9425C60.1349 37.5787 60.8349 37.1712 61.5537 36.7775C62.6762 37.705 64.0437 38.1637 65.4499 38.3175C56.3412 47.0425 49.8862 38.2162 49.8862 38.2162ZM66.3287 26.3512C65.6262 30.1625 63.5112 33.5937 60.3549 35.8425C60.2524 35.915 60.1487 35.9875 60.0449 36.0587C58.2724 37.265 56.7699 37.0037 54.8974 36.0175C47.3387 32.035 49.5474 20.7525 49.5474 20.7525C49.6399 19.9162 49.7949 19.1275 49.9937 18.39C50.1312 17.8775 50.5962 17.5087 51.1262 17.53H51.1374C52.9712 17.61 54.7974 17.4887 56.5937 17.0812C57.1912 16.945 57.7662 16.7762 58.3162 16.57C58.6937 16.8537 59.0849 17.1262 59.4849 17.3912C60.5262 18.08 61.5874 18.7662 62.5099 19.595C63.4412 20.4287 64.2124 21.4412 65.0574 22.3787C65.3712 20.5737 63.8399 19.6037 63.0462 18.285C64.1662 18.9937 65.0912 19.8225 65.7199 20.8462L65.9587 21.2725C66.3249 21.9962 66.5512 22.8137 66.6037 23.7487C66.6162 23.9712 66.6199 24.1912 66.6174 24.4112C66.6237 24.6662 66.4924 25.4637 66.3287 26.3512Z" fill="#263B3C"/>
</svg>
